<svg id="BACKGROUND_2" data-name="BACKGROUND 2" xmlns="http://www.w3.org/2000/svg" xmlns:xlink="http://www.w3.org/1999/xlink" viewBox="0 0 128 128"><defs><linearGradient id="linear-gradient" x1="89.87" y1="-20.5" x2="168.74" y2="314.22" gradientUnits="userSpaceOnUse"><stop offset="0" stop-color="#364ae4"/><stop offset="1" stop-color="#c90187"/></linearGradient></defs><title>banner</title><rect id="_Rectangle_" data-name="&lt;Rectangle&gt;" y="-0.83" width="100%" height="100%" style="fill:url(#linear-gradient)"/><circle cx="64" cy="63.81" r="60.48" style="fill:none;stroke:#f1f1f1;stroke-miterlimit:10"/><path d="M55.76,78l.67-.44h-.67Z" style="fill:#fff"/><path d="M81.24,74.6A19.85,19.85,0,0,0,93,57.4,115.26,115.26,0,0,1,68.45,82.49l2.13,3.13a119.76,119.76,0,0,0,11.5-9.79Z" style="fill:#fff"/><path d="M68.48,33.35a79.8,79.8,0,0,1-9.84,13.37h4.84a82.7,82.7,0,0,0,9-13A39.12,39.12,0,0,0,68.48,33.35Z" style="fill:#fff"/><path d="M65.23,64.36h-.78A101.43,101.43,0,0,1,38.72,81.13v4A104.87,104.87,0,0,0,70.84,63.45,15.19,15.19,0,0,1,65.23,64.36Z" style="fill:#fff"/><path d="M38.72,62.72v4.11a87.17,87.17,0,0,0,17-12.11v-5A82.71,82.71,0,0,1,38.72,62.72Z" style="fill:#fff"/><path d="M55.76,84.47a114.73,114.73,0,0,1-17,8.5v.57h8q4.65-2.17,9-4.73Z" style="fill:#fff"/><path d="M94.24,93.54l-1.65-2.4q-1.34,1.22-2.7,2.4Z" style="fill:#fff"/><path d="M59.55,33.29H55.17a70.55,70.55,0,0,1-16.45,16.4V54A74.19,74.19,0,0,0,59.55,33.29Z" style="fill:#fff"/><path d="M55.76,47v-.23H56A78.09,78.09,0,0,0,66.23,33.29H61.94a76.12,76.12,0,0,1-23.22,23v4.18A81.14,81.14,0,0,0,55.76,47Z" style="fill:#fff"/><path d="M65.33,77.93,67.46,81A113.4,113.4,0,0,0,93,54.23a22.61,22.61,0,0,0-1-5.58A108.54,108.54,0,0,1,65.33,77.93Z" style="fill:#fff"/><path d="M84.9,38.59a95.82,95.82,0,0,1-9.44,14.16,10.49,10.49,0,0,1,.36,2.83,10.29,10.29,0,0,1-.43,3A99.27,99.27,0,0,0,87.77,41.19,20.35,20.35,0,0,0,84.9,38.59Z" style="fill:#fff"/><path d="M89.42,86.53c-2.64,2.44-5.37,4.78-8.22,7h6.14c1.47-1.23,2.9-2.49,4.31-3.77Z" style="fill:#fff"/><path d="M52.67,33.29H48.15a64.44,64.44,0,0,1-9.43,9.47v4.46A68.47,68.47,0,0,0,52.67,33.29Z" style="fill:#fff"/><path d="M38.72,75.1v4A99.35,99.35,0,0,0,61.65,64.36H55.87A95.64,95.64,0,0,1,38.72,75.1Z" style="fill:#fff"/><path d="M83.08,77.29a123.94,123.94,0,0,1-11.52,9.76l2.15,3.15a128.37,128.37,0,0,0,11.57-9.71Z" style="fill:#fff"/><path d="M38.72,87.08v4a111.92,111.92,0,0,0,17-8.7V78A106.9,106.9,0,0,1,38.72,87.08Z" style="fill:#fff"/><path d="M55.76,93.54V90.82q-2.49,1.41-5.07,2.72Z" style="fill:#fff"/><path d="M80.47,36,80,35.81A90.07,90.07,0,0,1,71.94,48.2a7,7,0,0,1,1.21.84,7.3,7.3,0,0,1,1.47,1.77,92.39,92.39,0,0,0,8.71-13.29A25.77,25.77,0,0,0,80.47,36Z" style="fill:#fff"/><path d="M55.76,57.28A89.29,89.29,0,0,1,38.72,69v4a93,93,0,0,0,17-11Z" style="fill:#fff"/><path d="M66,46.74a14.75,14.75,0,0,1,4.18.67,88.08,88.08,0,0,0,8-12.29,29.61,29.61,0,0,0-3.68-1A84.22,84.22,0,0,1,66,46.74Z" style="fill:#fff"/><path d="M86.26,81.91a126.82,126.82,0,0,1-11.6,9.68l1.33,2h2.48a129.86,129.86,0,0,0,10-8.41Z" style="fill:#fff"/><path d="M91.24,46.48a18.94,18.94,0,0,0-1.48-2.73c-.23-.35-.47-.69-.72-1A103.54,103.54,0,0,1,56.43,77.53H62.9A107.15,107.15,0,0,0,91.24,46.48Z" style="fill:#fff"/><path d="M45.49,33.29H40.77c-.67.71-1.35,1.4-2.05,2.07v4.75A62.27,62.27,0,0,0,45.49,33.29Z" style="fill:#fff"/></svg>
